<svg width="20" height="26" viewBox="0 0 20 26" fill="none" xmlns="http://www.w3.org/2000/svg">
<path d="M0.0323342 13.24V2.88997C0.0323342 1.47997 0.522334 0.969973 1.94233 1.00997C5.03233 1.07997 8.13233 0.949973 11.2223 1.00997C16.8823 1.21997 19.7623 6.55997 16.7123 11.26C16.38 11.679 16.1938 12.1953 16.1823 12.73C16.2732 13.2153 16.5403 13.6498 16.9323 13.95C17.8803 14.9667 18.5667 16.1988 18.9323 17.54C19.5923 19.68 18.3423 22.54 16.4523 23.96C15.0871 24.9639 13.3987 25.427 11.7123 25.26H2.10233C1.80729 25.3134 1.50402 25.2998 1.21495 25.2201C0.92588 25.1405 0.658412 24.9969 0.432334 24.8C0.262095 24.5851 0.137853 24.3375 0.0673226 24.0726C-0.00320826 23.8077 -0.018522 23.5311 0.022334 23.26C0.042334 23 0.0423342 19.75 0.0323342 13.24ZM8.60233 10.5C10.7523 10.5 11.8423 10.5 12.4123 9.86997C12.8346 9.32662 13.0412 8.64638 12.9923 7.95997C13.0248 7.34814 12.8367 6.74496 12.4623 6.25997C11.9123 5.62997 10.7923 5.54997 8.52233 5.38997C8.52233 5.38997 7.99233 5.38997 7.33233 5.38997C6.67233 5.38997 6.13233 5.44997 5.90233 5.63997C5.67233 5.82997 5.60233 6.09997 5.60233 7.43997C5.60233 8.94997 5.60233 9.70997 5.89233 10.07C6.01233 10.25 6.32233 10.5 8.60233 10.5ZM8.97233 20.95C11.3623 20.95 12.5623 20.95 13.1923 20.3C13.4228 20.0392 13.5989 19.735 13.7105 19.4054C13.8221 19.0757 13.8669 18.7271 13.8423 18.38C13.8733 17.7539 13.6661 17.1394 13.2623 16.66C12.6423 16.02 11.3923 15.94 8.88233 15.78C8.83233 15.78 8.29233 15.78 7.56233 15.78C6.67233 15.83 6.21233 15.84 5.97233 16.03C5.73234 16.22 5.65233 16.78 5.54233 17.85C5.36233 19.68 5.54234 20.2 5.89233 20.51C5.94234 20.53 5.94233 20.94 8.99233 20.95H8.97233Z" fill="white"/>
</svg>
