<svg width="81" height="615" viewBox="0 0 81 615" fill="none" xmlns="http://www.w3.org/2000/svg">
<rect width="21" height="21" fill="#CFD3E9"/>
<rect x="60" width="21" height="21" fill="#CFD3E9"/>
<rect x="60" y="40" width="21" height="21" fill="#CFD3E9"/>
<rect y="40" width="21" height="21" fill="#CFD3E9"/>
<rect y="80" width="21" height="21" fill="#CFD3E9"/>
<rect x="60" y="80" width="21" height="21" fill="#CFD3E9"/>
<rect x="60" y="120" width="21" height="21" fill="#CFD3E9"/>
<rect y="120" width="21" height="21" fill="#CFD3E9"/>
<rect y="159" width="21" height="21" fill="#CFD3E9"/>
<rect x="60" y="159" width="21" height="21" fill="#CFD3E9"/>
<rect x="60" y="198" width="21" height="21" fill="#CFD3E9"/>
<rect y="198" width="21" height="21" fill="#CFD3E9"/>
<rect y="237" width="21" height="21" fill="#CFD3E9"/>
<rect x="60" y="237" width="21" height="21" fill="#CFD3E9"/>
<rect x="60" y="277" width="21" height="21" fill="#CFD3E9"/>
<rect y="277" width="21" height="21" fill="#CFD3E9"/>
<rect y="317" width="21" height="21" fill="#CFD3E9"/>
<rect x="60" y="317" width="21" height="21" fill="#CFD3E9"/>
<rect x="60" y="357" width="21" height="21" fill="#CFD3E9"/>
<rect y="357" width="21" height="21" fill="#CFD3E9"/>
<rect y="396" width="21" height="21" fill="#CFD3E9"/>
<rect x="60" y="396" width="21" height="21" fill="#CFD3E9"/>
<rect x="60" y="436" width="21" height="21" fill="#CFD3E9"/>
<rect y="436" width="21" height="21" fill="#CFD3E9"/>
<rect y="475" width="21" height="21" fill="#CFD3E9"/>
<rect x="60" y="475" width="21" height="21" fill="#CFD3E9"/>
<rect x="60" y="515" width="21" height="21" fill="#CFD3E9"/>
<rect y="515" width="21" height="21" fill="#CFD3E9"/>
<rect y="554" width="21" height="21" fill="#CFD3E9"/>
<rect x="60" y="554" width="21" height="21" fill="#CFD3E9"/>
<rect x="60" y="594" width="21" height="21" fill="#CFD3E9"/>
<rect y="594" width="21" height="21" fill="#CFD3E9"/>
<path d="M73 7H13" stroke="black" stroke-width="2" stroke-miterlimit="10" stroke-linecap="round" stroke-linejoin="round"/>
<path d="M73 16H13" stroke="black" stroke-width="2" stroke-miterlimit="10" stroke-linecap="round" stroke-linejoin="round"/>
<path d="M73 362H13" stroke="black" stroke-width="2" stroke-miterlimit="10" stroke-linecap="round" stroke-linejoin="round"/>
<path d="M73 371H13" stroke="black" stroke-width="2" stroke-miterlimit="10" stroke-linecap="round" stroke-linejoin="round"/>
<path d="M73 400H13" stroke="black" stroke-width="2" stroke-miterlimit="10" stroke-linecap="round" stroke-linejoin="round"/>
<path d="M73 409H13" stroke="black" stroke-width="2" stroke-miterlimit="10" stroke-linecap="round" stroke-linejoin="round"/>
<path d="M73 440H13" stroke="black" stroke-width="2" stroke-miterlimit="10" stroke-linecap="round" stroke-linejoin="round"/>
<path d="M73 449H13" stroke="black" stroke-width="2" stroke-miterlimit="10" stroke-linecap="round" stroke-linejoin="round"/>
<path d="M73 480H13" stroke="black" stroke-width="2" stroke-miterlimit="10" stroke-linecap="round" stroke-linejoin="round"/>
<path d="M73 489H13" stroke="black" stroke-width="2" stroke-miterlimit="10" stroke-linecap="round" stroke-linejoin="round"/>
<path d="M73 519H13" stroke="black" stroke-width="2" stroke-miterlimit="10" stroke-linecap="round" stroke-linejoin="round"/>
<path d="M73 528H13" stroke="black" stroke-width="2" stroke-miterlimit="10" stroke-linecap="round" stroke-linejoin="round"/>
<path d="M73 558H13" stroke="black" stroke-width="2" stroke-miterlimit="10" stroke-linecap="round" stroke-linejoin="round"/>
<path d="M73 568H13" stroke="black" stroke-width="2" stroke-miterlimit="10" stroke-linecap="round" stroke-linejoin="round"/>
<path d="M73 598H13" stroke="black" stroke-width="2" stroke-miterlimit="10" stroke-linecap="round" stroke-linejoin="round"/>
<path d="M73 607H13" stroke="black" stroke-width="2" stroke-miterlimit="10" stroke-linecap="round" stroke-linejoin="round"/>
<path d="M73 203H13" stroke="black" stroke-width="2" stroke-miterlimit="10" stroke-linecap="round" stroke-linejoin="round"/>
<path d="M73 213H13" stroke="black" stroke-width="2" stroke-miterlimit="10" stroke-linecap="round" stroke-linejoin="round"/>
<path d="M73 322H13" stroke="black" stroke-width="2" stroke-miterlimit="10" stroke-linecap="round" stroke-linejoin="round"/>
<path d="M73 331H13" stroke="black" stroke-width="2" stroke-miterlimit="10" stroke-linecap="round" stroke-linejoin="round"/>
<path d="M73 45H13" stroke="black" stroke-width="2" stroke-miterlimit="10" stroke-linecap="round" stroke-linejoin="round"/>
<path d="M73 54H13" stroke="black" stroke-width="2" stroke-miterlimit="10" stroke-linecap="round" stroke-linejoin="round"/>
<path d="M73 125H13" stroke="black" stroke-width="2" stroke-miterlimit="10" stroke-linecap="round" stroke-linejoin="round"/>
<path d="M73 134H13" stroke="black" stroke-width="2" stroke-miterlimit="10" stroke-linecap="round" stroke-linejoin="round"/>
<path d="M73 85H13" stroke="black" stroke-width="2" stroke-miterlimit="10" stroke-linecap="round" stroke-linejoin="round"/>
<path d="M73 94H13" stroke="black" stroke-width="2" stroke-miterlimit="10" stroke-linecap="round" stroke-linejoin="round"/>
<path d="M73 164H13" stroke="black" stroke-width="2" stroke-miterlimit="10" stroke-linecap="round" stroke-linejoin="round"/>
<path d="M73 173H13" stroke="black" stroke-width="2" stroke-miterlimit="10" stroke-linecap="round" stroke-linejoin="round"/>
<path d="M73 243H13" stroke="black" stroke-width="2" stroke-miterlimit="10" stroke-linecap="round" stroke-linejoin="round"/>
<path d="M73 252H13" stroke="black" stroke-width="2" stroke-miterlimit="10" stroke-linecap="round" stroke-linejoin="round"/>
<path d="M73 283H13" stroke="black" stroke-width="2" stroke-miterlimit="10" stroke-linecap="round" stroke-linejoin="round"/>
<path d="M73 292H13" stroke="black" stroke-width="2" stroke-miterlimit="10" stroke-linecap="round" stroke-linejoin="round"/>
</svg>
