<svg width="22" height="25" viewBox="0 0 22 25" fill="none" xmlns="http://www.w3.org/2000/svg">
<path d="M7.09109 24.037C5.27109 24.037 3.4611 23.857 1.6511 23.917C1.29852 23.9396 0.947998 23.8485 0.651096 23.657C-0.0789037 23.117 -0.0189048 21.917 0.0210952 21.037C0.0610952 20.157 0.0910975 19.337 0.621098 18.977C0.981098 18.747 1.2211 18.917 2.2911 18.887C2.99289 18.9021 3.6914 18.7869 4.3511 18.547C5.11796 18.1064 5.68961 17.3919 5.9511 16.547C6.9511 13.947 9.42109 8.05698 10.1611 6.78698C10.2211 6.66698 10.7011 5.72698 10.2611 5.09698C10.2152 5.01883 10.154 4.95079 10.0811 4.89698C9.9011 4.89698 9.61109 4.79698 9.25109 4.74698C7.86109 4.54698 7.61109 4.74698 7.25109 4.52698C6.89109 4.30698 7.0111 4.09699 7.0511 1.52699C7.0511 0.836987 6.9811 0.466986 7.2611 0.216986C7.36447 0.134866 7.48309 0.0740302 7.6101 0.0379871C7.7371 0.00194401 7.86999 -0.00859234 8.00109 0.00698598C8.8911 0.00698598 11.1011 0.00698598 14.1011 0.00698598C16.6811 0.00698598 18.6711 0.00698598 19.8311 0.00698598C21 5.85057e-06 21 3.05172e-05 21 3.05172e-05C21.5 2.07944e-05 21.707 0.500057 21.707 1.50003C21.747 2.96003 22.01 4.12003 21.5 4.50003C21.293 4.75306 19.9649 4.79698 19.0449 4.74698C18.1249 4.69698 17.6211 4.74698 17.1011 5.08698C16.9918 5.15847 16.894 5.24614 16.8111 5.34698C16.1579 6.05663 15.5875 6.83833 15.1111 7.67698C12.9611 11.867 12.1111 14.357 11.3611 16.057C11.2378 16.3838 11.1342 16.7177 11.0511 17.057C10.9069 17.5297 10.8726 18.0291 10.9511 18.517C10.9668 18.6121 10.9202 18.4557 10.9511 18.547C11.3511 19.317 13 18.517 13.9311 19.1983C14.1511 19.4383 14.0711 19.827 14.1211 21.937C14.1211 22.937 14.2011 23.327 13.9311 23.657C13.7367 23.8338 13.5068 23.9672 13.2568 24.0483C13.0067 24.1293 12.7423 24.1561 12.4811 24.127C10.7011 23.967 8.8911 24.047 7.09109 24.037Z" fill="white"/>
</svg>
