<svg width="226" height="61" viewBox="0 0 226 61" fill="none" xmlns="http://www.w3.org/2000/svg">
<mask id="mask0_59_935" style="mask-type:luminance" maskUnits="userSpaceOnUse" x="0" y="0" width="226" height="61">
<path d="M226 0H0.52002V60.479H226V0Z" fill="white"/>
</mask>
<g mask="url(#mask0_59_935)">
<path d="M59.8088 34.9889C59.8662 34.9895 59.9227 34.9753 59.9728 34.9476C60.023 34.9198 60.0651 34.8796 60.0951 34.8307C60.1208 34.7806 60.1343 34.7251 60.1343 34.6687C60.1343 34.6124 60.1208 34.5569 60.0951 34.5068L57.0143 28.2924C56.9851 28.239 56.9421 28.1944 56.8897 28.1633C56.8374 28.1322 56.7776 28.1158 56.7167 28.1158C56.6558 28.1158 56.5961 28.1322 56.5437 28.1633C56.4914 28.1944 56.4483 28.239 56.4192 28.2924L53.3158 34.5068C53.29 34.5572 53.2776 34.6134 53.2798 34.6699C53.2819 34.7265 53.2985 34.7816 53.328 34.8299C53.3574 34.8783 53.3987 34.9182 53.448 34.9461C53.4973 34.9739 53.5529 34.9886 53.6095 34.9889H59.8088Z" fill="black" stroke="black" stroke-linejoin="round"/>
<path d="M14.0185 53.0819C13.5774 54.8392 12.763 56.4809 11.6307 57.8953C11.2479 58.3876 10.7627 58.7908 10.2086 59.077C9.65449 59.3631 9.04481 59.5253 8.42178 59.5524C5.74019 59.5524 3.6386 56.7905 2.11702 51.2666C1.19989 47.9858 0.676461 44.6076 0.557778 41.2031C0.43443 38.3365 0.545276 35.4645 0.889211 32.6159C0.932413 31.9636 1.15389 31.3357 1.52948 30.8006C1.7522 30.5577 2.02803 30.3695 2.33546 30.2507C2.64556 30.1354 2.9783 30.0942 3.30717 30.1302C4.03146 30.1144 4.74342 30.3193 5.34849 30.7177C5.95061 31.1416 6.37666 31.7713 6.54617 32.4879L6.6441 33.0076C6.6376 33.4911 6.60491 33.9739 6.54617 34.4539C6.32773 36.8116 6.16954 39.0714 6.08668 41.2332C5.9871 43.2962 6.12612 45.3638 6.50098 47.3948C6.68176 48.3816 6.90774 49.3609 7.17891 50.3175C7.38466 51.1364 7.70414 51.9224 8.12801 52.6526C8.49711 53.2552 8.88127 53.549 9.25037 53.549C10.094 53.549 10.7845 52.3337 11.3218 49.9032C11.9102 47.0241 12.2629 44.1018 12.3764 41.1654C12.5572 38.1903 12.5572 35.2069 12.3764 32.2318C12.3604 31.9735 12.407 31.7151 12.512 31.4785C12.617 31.2326 12.7829 31.0174 12.9941 30.8533C13.3437 30.5195 13.7997 30.3194 14.2821 30.2884C14.9105 30.2561 15.53 30.4483 16.0297 30.8307C16.5135 31.2833 16.8496 31.8714 16.9938 32.518L17.0918 33.1432C17.1291 33.301 17.1443 33.4633 17.137 33.6253C17.1219 33.8762 17.1219 34.1277 17.137 34.3786C17.39 39.355 17.9156 44.3139 18.7113 49.2328C18.7489 49.4663 18.8318 49.8128 18.9598 50.2798C19.1705 51.1311 19.5328 51.9374 20.0295 52.6601C20.1631 52.9012 20.3515 53.1076 20.5794 53.2627C20.8052 53.416 21.0626 53.5164 21.3326 53.5565C22.7638 53.5565 23.5924 51.3369 23.8184 46.8977C24.0369 41.9691 23.9689 37.032 23.615 32.1113C23.5687 31.8848 23.5865 31.65 23.6663 31.4331C23.7462 31.2162 23.8849 31.0259 24.0669 30.8835C24.456 30.6326 24.9156 30.5137 25.3776 30.5445C26.1498 30.5578 26.9141 30.7031 27.6374 30.9738C28.4509 31.2676 28.9028 31.5915 29.0008 31.938L29.1439 34.9962C29.3849 39.7719 29.4276 43.8495 29.2719 47.2291C29.2041 50.2129 28.5648 53.156 27.3888 55.8991C26.9789 56.9883 26.2385 57.9218 25.2713 58.5689C24.3041 59.2159 23.1586 59.544 21.9955 59.5072C19.5499 59.5072 17.7044 57.265 16.459 52.7806C15.8437 50.4184 15.4404 48.0059 15.2538 45.572H15.0956C15.0432 48.1098 14.6815 50.6317 14.0185 53.0819Z" fill="black" stroke="black" stroke-miterlimit="10"/>
<path d="M41.4746 58.1062C41.5129 58.3093 41.4893 58.5193 41.4068 58.7088C41.3295 58.9001 41.1954 59.0631 41.0227 59.1758C40.4696 59.4313 39.8594 59.5378 39.2525 59.4847C38.5113 59.5219 37.7699 59.4171 37.0681 59.1758C36.8072 59.0571 36.5796 58.876 36.4052 58.6486C36.2292 58.429 36.1079 58.1709 36.0512 57.8953L35.8101 49.5492C35.7348 46.619 35.7273 44.7359 35.8101 43.6512C35.8391 42.8205 35.7962 41.9888 35.6821 41.1655C35.6657 40.9066 35.6072 40.6522 35.5088 40.4122C35.2291 39.8247 34.7481 39.357 34.153 39.094C34.0489 39.0172 33.9723 38.9089 33.9345 38.7852C33.8592 38.4989 34.1078 38.2579 34.6878 38.0319C35.5336 37.8151 36.4063 37.7212 37.279 37.7532C37.6941 37.7221 38.111 37.7838 38.4992 37.934C38.8904 38.0792 39.2451 38.308 39.5387 38.6044C40.0961 39.2536 40.5255 40.0025 40.8042 40.8114V41.9413C41.4232 40.8201 42.2918 39.8562 43.3427 39.1241C44.2083 38.4554 45.2624 38.0759 46.3557 38.0394C47.4306 38.0017 48.4984 38.2266 49.4667 38.6948C49.8219 38.8633 50.1395 39.1015 50.4007 39.3953C50.6614 39.681 50.8613 40.0168 50.9883 40.3821C51.1565 41.0104 51.1168 41.6763 50.8753 42.2803C50.6482 42.9211 50.2589 43.492 49.7454 43.9375C49.2815 44.3588 48.6961 44.6225 48.0731 44.6907C47.6421 44.7139 47.2121 44.6284 46.8227 44.4421C46.7013 44.372 46.596 44.2771 46.5139 44.1634C46.4255 44.0534 46.3637 43.9246 46.3331 43.7868C46.4782 43.5641 46.5396 43.2972 46.5064 43.0335C46.4627 42.7617 46.3173 42.5167 46.0996 42.3481C45.8874 42.1771 45.618 42.0936 45.3464 42.1146C45.0597 42.1274 44.7894 42.2517 44.5931 42.4611C44.0407 42.8109 43.5301 43.2228 43.0715 43.6889C42.3857 44.3516 41.8445 45.1493 41.4821 46.0315C41.3238 46.4113 41.21 46.8081 41.1432 47.2141C40.8042 49.5266 41.3541 56.5244 41.3993 57.0667C41.4484 57.4111 41.4735 57.7584 41.4746 58.1062Z" fill="black" stroke="black" stroke-miterlimit="10"/>
<path d="M59.2742 54.8672C59.2682 55.3746 59.3265 55.8808 59.4474 56.3737L59.7562 57.6166C59.8768 58.1213 59.8014 58.4678 59.5378 58.6561C58.9505 58.9021 58.3092 58.9904 57.6773 58.9122C56.9049 58.9003 56.1404 58.7551 55.4175 58.4828C55.1435 58.3614 54.905 58.1722 54.7245 57.9329C54.549 57.6923 54.4329 57.4135 54.3855 57.1194C54.2401 55.4177 54.2401 53.7066 54.3855 52.0048C54.5093 48.5753 54.2999 45.142 53.7603 41.753C53.5795 40.721 53.2104 38.8077 54.2499 37.8812C54.5858 37.6436 54.9685 37.4804 55.3725 37.4025C55.7765 37.3245 56.1924 37.3337 56.5926 37.4293C56.9955 37.4115 57.3966 37.4921 57.7615 37.664C58.1263 37.8359 58.4438 38.094 58.6866 38.416C59.1394 39.1053 59.4635 39.8709 59.6433 40.6758C59.5127 46.963 59.3897 51.6935 59.2742 54.8672Z" fill="black" stroke="black" stroke-miterlimit="10"/>
<path d="M71.8157 53.8353C71.9265 54.3651 72.1881 54.8516 72.5689 55.2363C72.9833 55.5288 73.4869 55.6673 73.9926 55.628C74.6913 55.6729 75.3845 55.479 75.9586 55.0781C76.5611 54.5724 77.0976 53.9929 77.5555 53.3532C77.6316 53.2408 77.7353 53.1499 77.8566 53.0893C77.978 53.0286 78.1129 53.0001 78.2485 53.0067C78.595 53.0067 78.9415 53.2628 79.288 53.7599C79.6208 54.2334 79.8751 54.7573 80.0412 55.3117C80.1416 55.6692 80.1672 56.0435 80.1165 56.4114C80.0659 56.7784 79.943 57.1317 79.755 57.4509C79.2751 58.2317 78.5489 58.8307 77.6911 59.1533C76.5148 59.6278 75.2529 59.8535 73.985 59.8161C72.3437 59.921 70.7183 59.4406 69.3977 58.4603C68.1954 57.3528 67.3597 55.9049 67.0023 54.3098C66.8882 53.6299 66.8227 52.9427 66.8065 52.2534C66.7613 51.1487 66.7312 49.8229 66.7161 48.2762L66.5203 43.2897L63.914 43.5081C63.7458 43.5091 63.5792 43.4758 63.4244 43.4102C63.2718 43.342 63.1357 43.2418 63.0251 43.1164C62.7824 42.8503 62.6068 42.5301 62.5129 42.1824C62.3179 41.4546 62.3846 40.6816 62.7012 39.9979C62.7012 39.9151 63.0025 39.8247 63.4997 39.7418C63.9968 39.659 64.6145 39.561 65.3527 39.4782L66.4901 39.3426L66.2566 34.8231C66.2943 34.1451 66.5974 33.5092 67.1003 33.0529C67.5059 32.6615 68.0433 32.4358 68.6068 32.4202C69.1899 32.4204 69.7585 32.602 70.2338 32.9399C70.6926 33.247 71.0369 33.6972 71.213 34.2205L71.4164 38.8906C72.5087 38.7475 73.5331 38.627 74.4747 38.5215C75.2247 38.4309 75.979 38.3806 76.7344 38.3709C77.8392 38.3709 78.5699 39.0112 78.9264 40.2917C78.9814 40.522 78.9814 40.762 78.9264 40.9922C78.8809 41.2252 78.7772 41.4428 78.6251 41.625C78.3392 42.0118 77.9209 42.28 77.45 42.3782L71.4993 42.9884L71.8157 53.8353Z" fill="black" stroke="black" stroke-miterlimit="10"/>
<path d="M87.3256 57.9555C85.743 56.8851 84.5986 55.2808 84.1017 53.436C83.3347 50.9324 83.3164 48.2592 84.0489 45.7452C84.7161 43.4795 86.1246 41.5034 88.0487 40.1335C90.071 38.7167 92.4953 37.9878 94.9636 38.0545C96.5759 38.0393 98.1538 38.5206 99.4832 39.433C100.872 40.3942 101.86 41.8303 102.263 43.4704C102.805 45.454 102.501 47.0208 101.351 48.1707C99.9951 49.4365 98.3213 50.3111 96.5078 50.7017C93.9862 51.3247 91.4198 51.7503 88.8321 51.9747C88.8313 52.4318 88.8999 52.8864 89.0355 53.323C89.1399 53.7252 89.3281 54.1009 89.5877 54.4254C89.8473 54.7499 90.1725 55.016 90.542 55.2062C91.4984 55.6777 92.5573 55.903 93.6228 55.8615C94.6662 55.8407 95.6991 55.6499 96.6811 55.2965C97.1699 55.1596 97.6242 54.9209 98.0143 54.596C98.3994 54.268 98.7145 53.8658 98.9408 53.4134C99.1413 52.9169 99.4949 52.4974 99.9502 52.2157C100.374 51.9333 100.872 51.7814 101.381 51.7788C101.841 51.7779 102.286 51.9378 102.639 52.2308C103.048 52.5954 103.334 53.0766 103.46 53.6092C103.326 54.6499 102.892 55.629 102.21 56.4264C101.335 57.4582 100.22 58.2599 98.9634 58.7615C97.4126 59.4036 95.7453 59.7165 94.0672 59.6805C91.1898 59.6579 88.9451 59.108 87.3256 57.9555ZM92.5984 47.4099C93.9511 47.1705 95.2359 46.6411 96.3647 45.8582C96.853 45.5619 97.2251 45.1074 97.4192 44.5702C97.604 44.0332 97.604 43.4499 97.4192 42.913C97.3516 42.7233 97.2465 42.5492 97.1104 42.4008C96.9713 42.2529 96.8017 42.1373 96.6133 42.0618C96.2039 41.8684 95.7552 41.773 95.3026 41.7831C94.3125 41.825 93.3609 42.1782 92.5833 42.7925C91.6489 43.4732 90.8299 44.2998 90.1578 45.2406C89.5392 46.0351 89.1091 46.9598 88.8999 47.9448C90.1678 47.879 91.4278 47.7051 92.6662 47.425L92.5984 47.4099Z" fill="black" stroke="black" stroke-miterlimit="10"/>
<path d="M113.509 58.1288C113.563 58.3193 113.558 58.5221 113.493 58.7094C113.429 58.8968 113.308 59.0597 113.147 59.1758C112.607 59.4313 112.009 59.5379 111.415 59.4847C110.661 59.5182 109.908 59.4136 109.193 59.1758C108.921 59.0569 108.679 58.8794 108.484 58.6561C108.297 58.4378 108.161 58.1805 108.085 57.9028C107.995 56.7353 107.807 54.6638 107.505 51.696C107.41 50.6917 107.274 49.1852 107.098 47.1765C106.925 45.1879 106.82 43.7341 106.775 42.8302C106.488 40.7662 106.518 39.4054 106.865 38.7475C107.011 38.4345 107.247 38.1722 107.543 37.9943C107.835 37.8161 108.173 37.7296 108.515 37.7457C109.26 37.6848 110.007 37.8363 110.669 38.1826C111.068 38.4615 111.369 38.8597 111.528 39.32L111.889 41.8961C112.444 40.7773 113.258 39.8066 114.262 39.0639C115.101 38.4035 116.132 38.0358 117.2 38.0169C118.306 37.978 119.405 38.2108 120.401 38.6948C120.769 38.856 121.098 39.095 121.365 39.3953C121.635 39.6939 121.841 40.0453 121.968 40.4273C122.009 40.5501 122.026 40.6799 122.017 40.8092C122.008 40.9385 121.973 41.0647 121.915 41.1805C121.801 41.4053 121.608 41.5798 121.373 41.6702C120.647 42.0104 119.861 42.2024 119.06 42.2351C117.462 42.4017 115.975 43.1305 114.865 44.2915C113.664 45.4451 112.885 46.9672 112.65 48.6152L113.403 57.1345C113.396 57.2852 113.456 57.6392 113.509 58.1288Z" fill="black" stroke="black" stroke-miterlimit="10"/>
<path d="M163.427 30.0625C163.76 30.1672 164.052 30.3725 164.263 30.6501C164.308 33.0103 164.434 36.3522 164.64 40.6759C164.845 44.9996 164.979 47.9047 165.039 49.3911C165.212 52.4041 165.348 55.0029 165.43 57.3003C165.43 58.9047 165.046 59.7032 164.173 59.7032C161.491 59.7032 159.984 59.078 159.653 57.8276C159.796 58.3247 159.653 55.0255 159.201 47.9524L158.945 44.1861L153.973 57.6393C153.788 57.9459 153.518 58.1923 153.196 58.3487C152.874 58.5051 152.513 58.5648 152.158 58.5206C151.371 58.506 150.598 58.3101 149.898 57.9481C149.145 57.5715 148.753 57.1948 148.731 56.8107L142.426 42.7022L142.848 57.1647C142.901 57.4656 142.885 57.7745 142.803 58.0686C142.721 58.3634 142.574 58.6362 142.373 58.8671C141.684 59.2449 140.894 59.3977 140.113 59.304C139.382 59.3421 138.654 59.1834 138.004 58.8445C137.733 58.669 137.5 58.4411 137.319 58.1741C137.137 57.9076 137.009 57.6082 136.942 57.2928C136.859 56.9936 136.816 56.6845 136.814 56.3738L136.227 32.7441C136.13 31.8793 136.241 31.0038 136.551 30.1906C136.799 29.7688 137.402 29.5578 138.366 29.5578C139.097 29.5512 139.827 29.6398 140.535 29.8215C141.191 29.9947 141.582 30.2584 141.71 30.5747V30.6651L151.209 52.3815C151.907 50.3728 153.049 47.051 154.636 42.4159C156.223 37.7809 157.479 34.1703 158.403 31.5841C158.402 31.3198 158.454 31.0581 158.555 30.8138C158.655 30.5695 158.803 30.3475 158.99 30.1604C159.331 29.926 159.719 29.7692 160.128 29.701C160.587 29.6181 160.926 29.5578 161.152 29.5277C161.922 29.6533 162.682 29.832 163.427 30.0625Z" fill="#5C2A32" stroke="#5C2A32" stroke-miterlimit="10"/>
<path d="M171.17 30.1679C171.39 29.7698 171.72 29.4431 172.12 29.2263C172.523 29.0152 172.976 28.9188 173.43 28.9476C174.428 28.9319 175.398 29.2739 176.165 29.9118C176.91 30.5081 177.461 31.3132 177.746 32.2243C177.868 32.6326 177.888 33.0642 177.807 33.4822C177.726 33.9022 177.542 34.2955 177.272 34.6272C176.989 34.9912 176.622 35.2809 176.202 35.4712C175.782 35.6615 175.322 35.7467 174.861 35.7194C173.928 35.757 173.011 35.4724 172.263 34.9134C171.577 34.3783 171.087 33.6315 170.869 32.7892C170.733 32.3555 170.69 31.8981 170.741 31.4466C170.793 30.995 170.94 30.5594 171.17 30.1679ZM172.73 40.0883C172.466 39.0413 172.474 38.3407 172.73 37.9867C172.96 37.7787 173.233 37.6242 173.53 37.5343C173.827 37.4445 174.14 37.4215 174.447 37.467C175.156 37.4599 175.846 37.6995 176.398 38.1449C176.955 38.5807 177.354 39.1863 177.535 39.8698C177.58 40.086 177.611 40.3049 177.626 40.5252L178.379 56.2532L178.53 57.4283C178.627 57.7405 178.643 58.0725 178.575 58.3924C178.507 58.5657 178.259 58.6937 177.822 58.7615C177.042 58.8594 176.257 58.8972 175.472 58.8745C175.042 58.9098 174.612 58.8012 174.251 58.5657C173.974 58.3453 173.78 58.0372 173.701 57.6919C173.611 57.3811 173.565 57.059 173.566 56.7353C173.498 56.2683 173.438 55.982 173.4 55.8163C173.234 55.0881 173.011 49.8455 172.73 40.0883Z" fill="#5C2A32" stroke="#5C2A32" stroke-miterlimit="10"/>
<path d="M182.289 38.4689C182.289 38.1526 182.831 37.8588 183.042 37.7157C183.937 37.3002 184.936 37.1587 185.912 37.3089C186.837 37.2934 187.741 37.5877 188.48 38.145C189.066 38.6793 189.454 39.3962 189.58 40.1788V43.0186C190.029 42.0794 190.679 41.251 191.486 40.5931C192.344 39.8463 193.303 39.2226 194.333 38.7401C195.142 38.3239 196.031 38.085 196.939 38.0396C197.693 38.0396 199.357 37.8739 200.54 38.8908C201.269 39.6279 201.715 40.599 201.798 41.6326C202.154 43.9268 202.263 46.2527 202.122 48.5701C202.122 53.7902 202.077 56.3965 202.521 57.7373C202.709 58.3022 203.199 59.643 202.627 60.2004C202.325 60.4942 201.73 60.464 200.548 60.4113C200.143 60.4091 199.744 60.3165 199.38 60.1401C199.175 60.0234 198.988 59.8789 198.823 59.7108C198.334 59.1933 197.957 58.5804 197.715 57.9105C196.962 55.7637 196.962 51.5154 196.962 51.5154C196.887 46.9506 196.962 44.6833 196.962 44.3293C196.991 43.8501 196.991 43.3697 196.962 42.8906C196.916 42.7014 196.802 42.5353 196.643 42.4231C196.484 42.311 196.29 42.2603 196.096 42.2804C195.448 42.2804 194.589 42.7324 193.565 43.6288C192.284 44.9037 191.342 46.4778 190.823 48.2086C189.971 50.9243 189.634 53.7753 189.829 56.6149C189.827 56.9371 189.845 57.259 189.881 57.5791C189.918 57.7667 189.897 57.9611 189.821 58.1365C189.745 58.3124 189.616 58.46 189.452 58.5583C188.898 58.7924 188.296 58.8906 187.697 58.8445C186.949 58.8743 186.201 58.7697 185.49 58.5357C185.226 58.4152 184.994 58.2347 184.812 58.0084C184.635 57.7887 184.511 57.5309 184.45 57.2552V55.7411C184.45 51.0559 185.143 41.5648 183.998 40.0583C183.792 39.7855 183.56 39.5333 183.305 39.3051C182.733 38.8079 182.311 38.7702 182.289 38.4689Z" fill="#5C2A32" stroke="#5C2A32" stroke-miterlimit="10"/>
<path d="M217.744 38.642C218.451 38.9163 219.102 39.3171 219.665 39.8246C219.63 37.7004 219.615 35.9102 219.62 34.4539C219.62 31.6819 219.592 29.5251 219.537 27.9834C219.53 27.7628 219.582 27.5442 219.688 27.3507C219.797 27.1568 219.959 26.9976 220.155 26.8912C220.626 26.6195 221.163 26.4839 221.707 26.4995C222.321 26.52 222.929 26.6369 223.507 26.846C224.185 27.087 224.576 27.4185 224.697 27.8554C224.802 32.2242 224.868 36.8844 224.893 41.8358C224.968 49.057 225.076 53.7599 225.217 55.9443C225.376 56.6601 225.629 57.3516 225.97 58.0007C225.91 58.528 225.541 58.882 224.848 59.0703C224.24 59.248 223.612 59.3443 222.98 59.3566C222.776 59.3726 222.571 59.347 222.377 59.2812C222.181 59.2201 222.002 59.1173 221.85 58.9799C221.55 58.646 221.297 58.2736 221.096 57.8727L220.659 56.8482C219.67 57.6785 218.55 58.3401 217.345 58.8067C216.372 59.2155 215.334 59.4451 214.279 59.4846C213.315 59.432 212.373 59.1752 211.515 58.7314C210.421 58.23 209.416 57.5532 208.54 56.7277C207.698 55.9805 207.082 55.0124 206.762 53.9331C206.295 51.879 206.257 49.7507 206.649 47.6811C206.974 45.2719 207.913 42.9867 209.376 41.0449C210.085 40.1105 211.011 39.363 212.074 38.8669C213.137 38.3708 214.305 38.1411 215.477 38.1976C216.254 38.2016 217.023 38.3524 217.744 38.642ZM219.884 50.8824C219.884 49.8881 219.884 48.8712 219.823 47.8242C219.725 46.3177 219.695 44.8112 219.718 43.3047C219.571 43.0347 219.373 42.7964 219.134 42.6037C218.894 42.4111 218.619 42.2678 218.324 42.1823C217.784 42.0075 217.22 41.9136 216.652 41.9036C215.575 41.9036 214.611 42.6569 213.76 44.088C212.863 45.6629 212.254 47.3845 211.959 49.1725C211.604 50.7178 211.591 52.3221 211.922 53.8729C212.027 54.3767 212.321 54.8213 212.743 55.1157C213.142 55.367 213.605 55.4978 214.076 55.4924C215.115 55.4087 216.133 55.1542 217.089 54.7391C218.073 54.4321 218.979 53.9185 219.748 53.2326C219.871 52.4556 219.917 51.6684 219.884 50.8824Z" fill="#5C2A32" stroke="#5C2A32" stroke-miterlimit="10"/>
<path d="M175.02 17.0236C174.754 15.9925 174.256 15.0358 173.564 14.2264C172.872 13.417 172.004 12.7764 171.027 12.3534C170.417 11.5399 169.837 10.7038 169.25 9.86767C165.694 3.99226 158.749 0 150.765 0C142.78 0 135.858 3.98473 132.295 9.84507C131.7 10.6887 131.12 11.5399 130.502 12.3534H130.427L129.899 12.5794C128.8 13.1597 127.877 14.0256 127.227 15.086C126.578 16.1464 126.226 17.3621 126.208 18.6055C126.222 19.8304 126.565 21.0291 127.201 22.076C127.837 23.1229 128.743 23.9795 129.824 24.5562L130.276 24.7822V24.624C130.934 25.8227 131.661 26.9822 132.453 28.0965L132.626 28.3149C136.272 33.8966 143.014 37.6629 150.757 37.6629C158.501 37.6629 165.385 33.8438 169.009 28.1718C169.01 28.1557 169.015 28.1402 169.025 28.1269C169.034 28.1137 169.047 28.1032 169.061 28.0965C169.888 26.939 170.643 25.7315 171.321 24.4809C172.41 24.0939 173.356 23.3845 174.033 22.4471C174.573 21.6649 174.94 20.7767 175.11 19.8416C175.28 18.9065 175.249 17.9459 175.02 17.0236Z" fill="black"/>
<path d="M142.629 21.3172C144.339 21.3172 145.718 19.1629 145.718 16.4964C145.718 13.8299 144.339 11.6755 142.629 11.6755C140.919 11.6755 139.541 13.8374 139.541 16.4964C139.541 19.1554 140.927 21.3172 142.629 21.3172Z" fill="white"/>
<path d="M159.646 21.3172C161.348 21.3172 162.734 19.1629 162.734 16.4964C162.734 13.8299 161.348 11.6755 159.646 11.6755C157.943 11.6755 156.557 13.8374 156.557 16.4964C156.557 19.1554 157.951 21.3172 159.646 21.3172Z" fill="white"/>
<path d="M144.964 27.6445C146.876 28.0056 148.82 28.1571 150.764 28.0965C152.708 28.127 154.649 27.9757 156.565 27.6445" stroke="white" stroke-width="4" stroke-linecap="round" stroke-linejoin="round"/>
<path d="M158.922 44.1936L153.951 57.6468C153.766 57.9534 153.496 58.1998 153.174 58.3562C152.852 58.5126 152.491 58.5723 152.136 58.5281C151.348 58.5124 150.575 58.3166 149.876 57.9556C149.123 57.579 148.731 57.2024 148.708 56.8182C146.855 52.389 144.656 47.6737 142.034 42.7624C140.121 39.1769 138.178 35.84 136.242 32.7441C136.145 31.8793 136.256 31.0038 136.566 30.1906C136.814 29.7687 137.417 29.5578 138.381 29.5578C139.113 29.5512 139.842 29.6398 140.55 29.8215C141.206 29.9947 141.597 30.2583 141.726 30.5747V30.6651L151.224 52.3815C151.927 50.3728 153.07 47.051 154.651 42.4159C156.233 37.7809 157.489 34.1703 158.418 31.5841C158.413 31.3148 158.463 31.0473 158.564 30.7976C158.665 30.5478 158.815 30.3209 159.005 30.1303C159.346 29.8959 159.735 29.739 160.143 29.6708C160.602 29.5879 160.941 29.5277 161.167 29.4976C161.931 29.6129 162.686 29.7815 163.427 30.0022C163.76 30.107 164.052 30.3122 164.263 30.5898L158.922 44.1936Z" fill="black"/>
</g>
</svg>
