<svg width="28" height="36" viewBox="0 0 28 36" fill="none" xmlns="http://www.w3.org/2000/svg">
<path d="M25.5158 9.61091C25.5158 11.9459 25.6174 14.2808 25.5158 16.6158C25.2595 19.6016 23.8839 22.3802 21.6651 24.3945C19.4462 26.4087 16.5479 27.5098 13.5513 27.4769C10.5547 27.4441 7.68128 26.2799 5.50704 24.2175C3.3328 22.1552 2.01848 19.3471 1.82755 16.3564C1.71475 11.8444 1.82755 7.23079 1.74858 2.68489C1.6809 0.631907 2.60589 0.349921 4.35431 0.3048C6.29449 0.3048 6.90361 0.913872 6.84721 2.78637C6.74569 6.90362 6.76825 11.0209 6.84721 15.1269C6.92617 19.56 9.81388 22.7184 13.6153 22.7071C17.4167 22.6958 20.3834 19.5149 20.5075 15.1495C20.5827 11.1413 20.5827 7.13681 20.5075 3.13612C20.5075 1.36514 20.6315 0.338596 22.9552 0.259635C25.5158 0.180675 25.6512 1.3877 25.5722 3.27148C25.482 5.38087 25.5722 7.50152 25.5722 9.61091H25.5158Z" fill="white"/>
<path d="M14.1694 35.5778C10.2327 35.5778 6.27336 35.5778 2.37043 35.5778C0.994255 35.5778 0.0467167 35.4651 0.00159617 33.6602C-0.0435244 31.8554 0.870175 31.5057 2.46067 31.517C10.2064 31.5696 17.9558 31.5696 25.709 31.517C27.2882 31.517 27.8748 31.9569 27.8748 33.5812C27.8748 35.2055 27.119 35.6229 25.6188 35.5891C21.8061 35.5327 17.9821 35.5778 14.1694 35.5778Z" fill="white"/>
</svg>
