<svg width="691" height="632" viewBox="0 0 691 632" fill="none" xmlns="http://www.w3.org/2000/svg">
<path d="M510.614 308.018H519.775C528.173 308.018 535.044 301.17 535.044 292.8V266.043C535.044 257.673 528.173 250.825 519.775 250.825H510.614C502.217 250.825 495.346 257.673 495.346 266.043V292.8C495.346 301.17 502.217 308.018 510.614 308.018Z" fill="#848899"/>
<path d="M545.987 331.732C553.622 328.308 557.057 319.305 553.494 311.696L541.534 285.572C538.099 277.963 529.065 274.539 521.43 278.09C513.796 281.514 510.36 290.518 513.923 298.127L525.884 324.25C529.319 331.859 538.226 335.156 545.987 331.732Z" fill="#ADB3D9"/>
<path d="M535.681 336.298L540.898 339.341C548.151 343.526 557.566 340.99 561.765 333.762L580.978 300.663C585.177 293.435 582.632 284.05 575.38 279.865L570.163 276.822C562.91 272.637 553.495 275.173 549.296 282.402L530.083 315.5C525.884 322.729 528.301 332.113 535.681 336.298Z" fill="#848899"/>
<path d="M520.667 125.532L522.321 126.293C528.428 129.463 533.645 136.185 533.645 144.681C533.645 153.051 528.555 159.645 522.702 162.942L521.303 163.703" fill="#848899"/>
<path d="M333.116 125.532L331.462 126.293C325.355 129.463 320.138 136.185 320.138 144.681C320.138 153.051 325.228 159.645 331.081 162.942L332.48 163.703" fill="#848899"/>
<path d="M427.146 232.056C480.553 232.056 523.848 193.448 523.848 145.823C523.848 98.1972 480.553 59.589 427.146 59.589C373.74 59.589 330.445 98.1972 330.445 145.823C330.445 193.448 373.74 232.056 427.146 232.056Z" fill="#ADB3D9"/>
<path d="M362.127 209.61C359.964 197.689 358.437 173.595 358.437 145.569C358.437 118.304 359.836 94.5895 361.872 82.4153C358.182 85.2052 331.717 106.256 330.317 143.033C328.917 183.359 359.2 207.327 362.127 209.61Z" fill="#848899"/>
<path d="M389.611 153.558C397.552 153.558 403.989 143.622 403.989 131.366C403.989 119.109 397.552 109.173 389.611 109.173C381.67 109.173 375.233 119.109 375.233 131.366C375.233 143.622 381.67 153.558 389.611 153.558Z" fill="black"/>
<path d="M461.755 153.558C469.696 153.558 476.133 143.622 476.133 131.366C476.133 119.109 469.696 109.173 461.755 109.173C453.814 109.173 447.377 119.109 447.377 131.366C447.377 143.622 453.814 153.558 461.755 153.558Z" fill="black"/>
<path d="M400.426 192.237C406.406 194.012 414.295 195.661 423.584 196.041C436.18 196.548 446.614 194.393 453.739 192.237" stroke="black" stroke-width="3" stroke-miterlimit="10" stroke-linecap="round" stroke-linejoin="round"/>
<path d="M382.484 355.193H480.077C488.474 355.193 495.345 348.345 495.345 339.975V248.289C495.345 239.919 488.474 233.071 480.077 233.071H382.484C374.087 233.071 367.216 239.919 367.216 248.289V339.975C367.216 348.345 374.087 355.193 382.484 355.193Z" fill="#ADB3D9"/>
<path d="M429.308 272.764C434.79 272.764 439.233 268.335 439.233 262.872C439.233 257.409 434.79 252.981 429.308 252.981C423.827 252.981 419.384 257.409 419.384 262.872C419.384 268.335 423.827 272.764 429.308 272.764Z" stroke="#848899" stroke-width="3" stroke-miterlimit="10"/>
<path d="M484.531 355.193L476.515 347.331H385.539L378.032 354.813" stroke="#848899" stroke-width="3" stroke-miterlimit="10"/>
<path d="M329.045 424.561H335.025C343.423 424.561 350.294 417.713 350.294 409.343V371.045C350.294 362.675 343.423 355.827 335.025 355.827H329.045C320.647 355.827 313.776 362.675 313.776 371.045V409.343C313.776 417.713 320.647 424.561 329.045 424.561Z" fill="#848899"/>
<path d="M336.044 476.301L347.495 474.525C351.185 474.018 353.603 470.594 353.094 466.916L347.622 430.267C347.114 426.589 343.678 424.18 339.988 424.687L328.537 426.463C324.847 426.97 322.429 430.394 322.938 434.071L328.409 470.721C329.046 474.272 332.481 476.808 336.044 476.301Z" fill="#848899"/>
<path d="M572.961 245.879L577.16 276.949C577.16 276.949 569.652 274.286 569.652 274.159C564.817 268.325 565.581 266.043 565.708 265.662C566.09 264.521 572.452 247.147 572.961 245.879Z" fill="#848899"/>
<path d="M569.144 261.097C572.071 260.589 574.107 257.926 573.598 255.01L570.799 237.636C570.29 234.719 567.618 232.69 564.691 233.198C561.765 233.705 559.729 236.368 560.238 239.285L563.037 256.658C563.419 259.575 566.218 261.604 569.144 261.097Z" fill="#848899"/>
<path d="M358.055 452.967C360.599 451.318 361.236 448.021 359.709 445.612L350.166 430.774C348.512 428.238 345.203 427.604 342.786 429.126C340.241 430.774 339.605 434.072 341.132 436.481L350.675 451.318C352.329 453.855 355.637 454.615 358.055 452.967Z" fill="#848899"/>
<path d="M339.987 308.018H351.948C360.346 308.018 367.217 301.17 367.217 292.8V266.043C367.217 257.673 360.346 250.825 351.948 250.825H339.987C331.59 250.825 324.719 257.673 324.719 266.043V292.8C324.719 301.17 331.59 308.018 339.987 308.018Z" fill="#848899"/>
<path d="M383.072 392.802L476.21 392.802L476.21 355.138L383.072 355.138L383.072 392.802Z" fill="#ADB3D9"/>
<path d="M393.427 436.988H469.007C477.405 436.988 484.276 430.14 484.276 421.77V398.563C484.276 390.194 477.405 383.346 469.007 383.346H393.427C385.03 383.346 378.159 390.194 378.159 398.563V421.77C378.159 430.14 385.03 436.988 393.427 436.988Z" fill="#848899"/>
<path d="M385.666 494.816H406.915C415.313 494.816 422.184 487.968 422.184 479.598V427.097C422.184 418.727 415.313 411.879 406.915 411.879H385.666C377.268 411.879 370.397 418.727 370.397 427.097V479.598C370.397 487.968 377.268 494.816 385.666 494.816Z" fill="#ADB3D9"/>
<path d="M454.502 494.816H475.75C484.148 494.816 491.019 487.968 491.019 479.598V427.097C491.019 418.727 484.148 411.879 475.75 411.879H454.502C446.104 411.879 439.233 418.727 439.233 427.097V479.598C439.233 487.968 446.104 494.816 454.502 494.816Z" fill="#ADB3D9"/>
<path d="M569.908 24.0811L599.046 20.4035C612.024 18.7549 624.239 29.1537 626.02 43.3569L626.529 47.6686L643.833 46.4004L641.925 30.6755C641.67 28.7733 643.07 26.9978 644.979 26.7442L655.921 25.3493C657.83 25.0957 659.611 26.4906 659.866 28.3928L690.657 277.076C690.912 278.978 689.512 280.753 687.604 281.007L676.661 282.402C674.753 282.656 672.971 281.261 672.717 279.358L645.488 60.4768L628.31 61.745L689.003 544.908C689.003 544.908 672.08 598.55 661.647 625.308C646.633 601.72 612.533 554.419 612.533 554.419L549.55 52.868C547.768 38.6648 556.929 25.7297 569.908 24.0811Z" fill="black"/>
<path d="M569.781 24.8417C569.781 24.8417 568.127 13.6821 568.127 13.5553C568 12.7944 567.491 8.60953 570.417 4.93191C572.199 2.52244 574.998 0.873849 578.179 0.366592L580.087 0.112948C586.449 -0.774752 592.43 3.66378 593.32 10.1313C593.32 10.2581 594.974 21.5446 594.974 21.6714" fill="black"/>
<path d="M687.512 531.771L611.11 541.178L612.701 554.016L689.104 544.609L687.512 531.771Z" fill="white"/>
<path d="M451.703 607.173H480.84C489.238 607.173 496.109 600.325 496.109 591.955V519.925C496.109 511.555 489.238 504.707 480.84 504.707H451.703C443.305 504.707 436.434 511.555 436.434 519.925V591.955C436.434 600.325 443.305 607.173 451.703 607.173Z" fill="#ADB3D9"/>
<path d="M379.559 607.173H408.696C417.094 607.173 423.965 600.325 423.965 591.955V519.925C423.965 511.555 417.094 504.707 408.696 504.707H379.559C371.161 504.707 364.29 511.555 364.29 519.925V591.955C364.29 600.325 371.161 607.173 379.559 607.173Z" fill="#ADB3D9"/>
<path d="M445.596 631.775H493.947C500.691 631.775 506.289 626.195 506.289 619.474C506.289 612.753 500.691 607.173 493.947 607.173H445.596C438.853 607.173 433.254 612.753 433.254 619.474C433.254 626.195 438.725 631.775 445.596 631.775Z" fill="#848899"/>
<path d="M367.09 631.775H415.44C422.184 631.775 427.783 626.195 427.783 619.474C427.783 612.753 422.184 607.173 415.44 607.173H367.09C360.346 607.173 354.748 612.753 354.748 619.474C354.748 626.195 360.346 631.775 367.09 631.775Z" fill="#848899"/>
<path d="M446.36 504.707H484.658C487.33 504.707 489.494 502.551 489.494 499.888C489.494 497.225 487.33 495.069 484.658 495.069H446.36C443.688 495.069 441.524 497.225 441.524 499.888C441.524 502.551 443.688 504.707 446.36 504.707Z" fill="#848899"/>
<path d="M375.742 504.707H414.041C416.713 504.707 418.876 502.551 418.876 499.888C418.876 497.225 416.713 495.069 414.041 495.069H375.742C373.07 495.069 370.907 497.225 370.907 499.888C370.907 502.551 373.07 504.707 375.742 504.707Z" fill="#848899"/>
<path d="M492.038 209.61C494.201 197.689 495.728 173.595 495.728 145.569C495.728 118.304 494.328 94.5895 492.292 82.4153C495.982 85.2052 522.448 106.256 523.847 143.033C525.247 183.359 495.091 207.327 492.038 209.61Z" fill="#848899"/>
<path d="M332.99 356.208C341.26 357.222 348.895 351.389 350.04 343.146L353.729 314.613C354.747 306.37 348.895 298.761 340.624 297.619C332.353 296.605 324.719 302.438 323.574 310.681L319.884 339.215C318.866 347.584 324.719 355.193 332.99 356.208Z" fill="#ADB3D9"/>
<path d="M268.852 527.005H206.739H4.0797C1.83586 527.005 0 519.359 0 509.933V47.7401C0 38.3149 1.83586 30.668 4.0797 30.668H268.852C271.096 30.668 272.932 38.3149 272.932 47.7401V509.933C272.932 519.359 271.096 527.005 268.852 527.005Z" fill="#CFD3E9"/>
<path d="M272.856 191.987H312.828L272.856 211.105V191.987Z" fill="#CFD3E9"/>
<path d="M209.204 248.726H56.4358C47.0913 248.726 39.4458 243.056 39.4458 236.125V72.3154C39.4458 65.3849 47.0913 59.7146 56.4358 59.7146H209.204C218.548 59.7146 226.194 65.3849 226.194 72.3154V236.125C226.194 243.056 218.548 248.726 209.204 248.726Z" fill="#F2F3F9"/>
<path d="M48.5754 76.0758H32.2646" stroke="black" stroke-width="2" stroke-miterlimit="10" stroke-linecap="round" stroke-linejoin="round"/>
<path d="M48.5754 89.0225H32.2646" stroke="black" stroke-width="2" stroke-miterlimit="10" stroke-linecap="round" stroke-linejoin="round"/>
<path d="M48.5754 101.872H32.2646" stroke="black" stroke-width="2" stroke-miterlimit="10" stroke-linecap="round" stroke-linejoin="round"/>
<path d="M48.5754 114.818H32.2646" stroke="black" stroke-width="2" stroke-miterlimit="10" stroke-linecap="round" stroke-linejoin="round"/>
<path d="M48.5754 127.765H32.2646" stroke="black" stroke-width="2" stroke-miterlimit="10" stroke-linecap="round" stroke-linejoin="round"/>
<path d="M48.5754 140.614H32.2646" stroke="black" stroke-width="2" stroke-miterlimit="10" stroke-linecap="round" stroke-linejoin="round"/>
<path d="M48.5754 153.561H32.2646" stroke="black" stroke-width="2" stroke-miterlimit="10" stroke-linecap="round" stroke-linejoin="round"/>
<path d="M48.5754 166.507H32.2646" stroke="black" stroke-width="2" stroke-miterlimit="10" stroke-linecap="round" stroke-linejoin="round"/>
<path d="M48.5754 179.357H32.2646" stroke="black" stroke-width="2" stroke-miterlimit="10" stroke-linecap="round" stroke-linejoin="round"/>
<path d="M48.5754 192.303H32.2646" stroke="black" stroke-width="2" stroke-miterlimit="10" stroke-linecap="round" stroke-linejoin="round"/>
<path d="M48.5754 205.25H32.2646" stroke="black" stroke-width="2" stroke-miterlimit="10" stroke-linecap="round" stroke-linejoin="round"/>
<path d="M48.5754 218.099H32.2646" stroke="black" stroke-width="2" stroke-miterlimit="10" stroke-linecap="round" stroke-linejoin="round"/>
<path d="M63.4209 108.382L172.81 108.382" stroke="black" stroke-width="2" stroke-miterlimit="10" stroke-linecap="round" stroke-linejoin="round" stroke-dasharray="30 8 12 4"/>
<path d="M63.4209 122.01L149.369 122.01" stroke="black" stroke-width="2" stroke-miterlimit="10" stroke-linecap="round" stroke-linejoin="round" stroke-dasharray="30 8 12 4"/>
<path d="M63.4209 160.947H149.369" stroke="black" stroke-width="2" stroke-miterlimit="10" stroke-linecap="round" stroke-linejoin="round" stroke-dasharray="30 8 12 4"/>
<path d="M63.4209 147.319L172.81 147.319" stroke="black" stroke-width="2" stroke-miterlimit="10" stroke-linecap="round" stroke-linejoin="round" stroke-dasharray="30 8 12 4"/>
<path d="M63.4209 199.884H117.139" stroke="black" stroke-width="2" stroke-miterlimit="10" stroke-linecap="round" stroke-linejoin="round" stroke-dasharray="30 8 12 4"/>
<path d="M63.4209 186.256L142.532 186.256" stroke="black" stroke-width="2" stroke-miterlimit="10" stroke-linecap="round" stroke-linejoin="round" stroke-dasharray="30 8 12 4"/>
<path d="M139.995 176.642H224.581C227.619 176.642 230.081 179.105 230.081 182.142V228.687V256.464C230.081 259.501 227.619 261.964 224.581 261.964H190.596H139.995C136.958 261.964 134.495 259.501 134.495 256.464V182.142C134.495 179.105 136.958 176.642 139.995 176.642Z" fill="#F2F3F9" stroke="#A3684A" stroke-width="3"/>
<path d="M132.995 182.142C132.995 178.276 136.129 175.142 139.995 175.142H224.581C228.447 175.142 231.581 178.276 231.581 182.142V197.223H132.995V182.142Z" fill="#A3684A"/>
<rect x="149.611" y="164.102" width="9.96941" height="24.2884" rx="4" fill="black"/>
<rect x="177.303" y="164.102" width="9.96941" height="24.2884" rx="4" fill="black"/>
<rect x="203.89" y="164.102" width="9.96941" height="24.2884" rx="4" fill="black"/>
<rect x="142.965" y="202.743" width="14.4003" height="14.3522" fill="#ADB3D9"/>
<rect x="164.011" y="202.743" width="14.4003" height="14.3522" fill="#ADB3D9"/>
<rect x="206.104" y="202.743" width="14.4003" height="14.3522" fill="#ADB3D9"/>
<rect x="185.058" y="202.743" width="14.4003" height="14.3522" fill="#ADB3D9"/>
<rect x="142.965" y="222.615" width="14.4003" height="14.3522" fill="#ADB3D9"/>
<rect x="164.011" y="222.615" width="14.4003" height="14.3522" fill="#ADB3D9"/>
<path d="M185.058 222.615H199.458V224.823V236.967H187.827H185.058V222.615Z" fill="#ADB3D9"/>
<rect x="164.011" y="242.487" width="14.4003" height="14.3522" fill="#ADB3D9"/>
<rect x="142.965" y="242.487" width="14.4003" height="14.3522" fill="#ADB3D9"/>
<path d="M166.227 254.631L176.196 244.695" stroke="black" stroke-width="3" stroke-linecap="round" stroke-linejoin="round"/>
<path d="M176.196 254.631L166.227 244.695" stroke="black" stroke-width="3" stroke-linecap="round" stroke-linejoin="round"/>
<path d="M240.05 248.007C240.05 263.027 227.832 275.212 212.75 275.212C197.667 275.212 185.449 263.027 185.449 248.007C185.449 232.988 197.667 220.803 212.75 220.803C227.832 220.803 240.05 232.988 240.05 248.007Z" fill="#F2F3F9" stroke="black" stroke-width="3"/>
<rect x="208.319" y="228.135" width="8.8617" height="28.7044" rx="4" fill="black"/>
<ellipse cx="212.75" cy="263.463" rx="4.43085" ry="4.41607" fill="black"/>
<path d="M209.531 487.415H56.2826C46.9088 487.415 39.2393 482.034 39.2393 475.457V320.009C39.2393 313.433 46.9088 308.052 56.2826 308.052H209.531C218.904 308.052 226.574 313.433 226.574 320.009V475.457C226.574 482.034 218.904 487.415 209.531 487.415Z" fill="#FAFAFA"/>
<path d="M48.9056 324.892H32.2646" stroke="black" stroke-width="2" stroke-miterlimit="10" stroke-linecap="round" stroke-linejoin="round"/>
<path d="M48.9056 338.145H32.2646" stroke="black" stroke-width="2" stroke-miterlimit="10" stroke-linecap="round" stroke-linejoin="round"/>
<path d="M48.9056 351.298H32.2646" stroke="black" stroke-width="2" stroke-miterlimit="10" stroke-linecap="round" stroke-linejoin="round"/>
<path d="M48.9056 364.551H32.2646" stroke="black" stroke-width="2" stroke-miterlimit="10" stroke-linecap="round" stroke-linejoin="round"/>
<path d="M48.9056 377.804H32.2646" stroke="black" stroke-width="2" stroke-miterlimit="10" stroke-linecap="round" stroke-linejoin="round"/>
<path d="M48.9056 390.957H32.2646" stroke="black" stroke-width="2" stroke-miterlimit="10" stroke-linecap="round" stroke-linejoin="round"/>
<path d="M48.9056 404.21H32.2646" stroke="black" stroke-width="2" stroke-miterlimit="10" stroke-linecap="round" stroke-linejoin="round"/>
<path d="M48.9056 417.463H32.2646" stroke="black" stroke-width="2" stroke-miterlimit="10" stroke-linecap="round" stroke-linejoin="round"/>
<path d="M48.9056 430.616H32.2646" stroke="black" stroke-width="2" stroke-miterlimit="10" stroke-linecap="round" stroke-linejoin="round"/>
<path d="M48.9056 443.869H32.2646" stroke="black" stroke-width="2" stroke-miterlimit="10" stroke-linecap="round" stroke-linejoin="round"/>
<path d="M48.9056 457.122H32.2646" stroke="black" stroke-width="2" stroke-miterlimit="10" stroke-linecap="round" stroke-linejoin="round"/>
<path d="M48.9056 470.276H32.2646" stroke="black" stroke-width="2" stroke-miterlimit="10" stroke-linecap="round" stroke-linejoin="round"/>
<path d="M90.955 340.337H65.8442V365.448H90.955V340.337Z" stroke="black" stroke-width="2" stroke-miterlimit="10" stroke-linecap="round" stroke-linejoin="round"/>
<path d="M73.3184 350.302L78.3007 355.284L96.3366 337.248" stroke="black" stroke-width="2" stroke-miterlimit="10" stroke-linecap="round" stroke-linejoin="round"/>
<path d="M105.005 347.91H207.64" stroke="black" stroke-width="2" stroke-miterlimit="10" stroke-linecap="round" stroke-linejoin="round"/>
<path d="M105.005 361.861H187.711" stroke="black" stroke-width="2" stroke-miterlimit="10" stroke-linecap="round" stroke-linejoin="round"/>
<path d="M90.955 379.996H65.8442V405.107H90.955V379.996Z" stroke="black" stroke-width="2" stroke-miterlimit="10" stroke-linecap="round" stroke-linejoin="round"/>
<path d="M73.3184 389.961L78.3007 394.943L96.3366 376.907" stroke="black" stroke-width="2" stroke-miterlimit="10" stroke-linecap="round" stroke-linejoin="round"/>
<path d="M90.955 422.645H65.8442V447.756H90.955V422.645Z" stroke="black" stroke-width="2" stroke-miterlimit="10" stroke-linecap="round" stroke-linejoin="round"/>
<path d="M73.3184 432.709L78.3007 437.691L96.3366 419.656" stroke="black" stroke-width="2" stroke-miterlimit="10" stroke-linecap="round" stroke-linejoin="round"/>
<path d="M105.005 386.772H207.64" stroke="black" stroke-width="2" stroke-miterlimit="10" stroke-linecap="round" stroke-linejoin="round"/>
<path d="M105.005 400.723H187.711" stroke="black" stroke-width="2" stroke-miterlimit="10" stroke-linecap="round" stroke-linejoin="round"/>
<path d="M105.005 428.624H207.64" stroke="black" stroke-width="2" stroke-miterlimit="10" stroke-linecap="round" stroke-linejoin="round"/>
<path d="M105.005 442.574H187.711" stroke="black" stroke-width="2" stroke-miterlimit="10" stroke-linecap="round" stroke-linejoin="round"/>
</svg>
