<svg width="619" height="724" viewBox="0 0 619 724" fill="none" xmlns="http://www.w3.org/2000/svg">
<path d="M457.272 433.841H465.476C472.996 433.841 479.149 427.708 479.149 420.213V396.25C479.149 388.755 472.996 382.622 465.476 382.622H457.272C449.751 382.622 443.598 388.755 443.598 396.25V420.213C443.598 427.708 449.751 433.841 457.272 433.841Z" fill="#848899"/>
<path d="M488.949 455.078C495.786 452.011 498.863 443.948 495.672 437.134L484.961 413.739C481.885 406.925 473.794 403.859 466.958 407.039C460.121 410.105 457.044 418.168 460.235 424.982L470.946 448.377C474.022 455.191 481.999 458.144 488.949 455.078Z" fill="#ADB3D9"/>
<path d="M479.72 459.166L484.392 461.892C490.887 465.639 499.319 463.368 503.079 456.895L520.285 427.254C524.045 420.78 521.766 412.377 515.271 408.629L510.599 405.903C504.105 402.156 495.672 404.427 491.912 410.9L474.706 440.541C470.946 447.014 473.111 455.418 479.72 459.166Z" fill="#848899"/>
<path d="M466.274 270.419L467.755 271.1C473.225 273.939 477.896 279.958 477.896 287.567C477.896 295.062 473.339 300.968 468.097 303.921L466.844 304.602" fill="#848899"/>
<path d="M298.317 270.419L296.835 271.1C291.366 273.939 286.694 279.958 286.694 287.567C286.694 295.062 291.252 300.968 296.494 303.921L297.747 304.602" fill="#848899"/>
<path d="M382.524 365.814C430.351 365.814 469.123 331.24 469.123 288.589C469.123 245.939 430.351 211.364 382.524 211.364C334.696 211.364 295.924 245.939 295.924 288.589C295.924 331.24 334.696 365.814 382.524 365.814Z" fill="#ADB3D9"/>
<path d="M324.296 345.713C322.359 335.038 320.992 313.46 320.992 288.362C320.992 263.945 322.245 242.708 324.068 231.806C320.764 234.304 297.063 253.156 295.81 286.091C294.556 322.205 321.676 343.669 324.296 345.713Z" fill="#848899"/>
<path d="M348.909 295.517C356.02 295.517 361.785 286.619 361.785 275.643C361.785 264.667 356.02 255.769 348.909 255.769C341.798 255.769 336.033 264.667 336.033 275.643C336.033 286.619 341.798 295.517 348.909 295.517Z" fill="black"/>
<path d="M413.516 295.517C420.628 295.517 426.392 286.619 426.392 275.643C426.392 264.667 420.628 255.769 413.516 255.769C406.405 255.769 400.641 264.667 400.641 275.643C400.641 286.619 406.405 295.517 413.516 295.517Z" fill="black"/>
<path d="M358.595 330.155C363.95 331.744 371.015 333.221 379.333 333.562C390.614 334.016 399.957 332.085 406.338 330.155" stroke="black" stroke-width="3" stroke-miterlimit="10" stroke-linecap="round" stroke-linejoin="round"/>
<path d="M342.528 476.087H429.924C437.445 476.087 443.598 469.955 443.598 462.459V380.351C443.598 372.855 437.445 366.723 429.924 366.723H342.528C335.007 366.723 328.854 372.855 328.854 380.351V462.459C328.854 469.955 335.007 476.087 342.528 476.087Z" fill="#ADB3D9"/>
<path d="M384.46 402.269C389.368 402.269 393.347 398.303 393.347 393.411C393.347 388.519 389.368 384.553 384.46 384.553C379.551 384.553 375.572 388.519 375.572 393.411C375.572 398.303 379.551 402.269 384.46 402.269Z" stroke="#848899" stroke-width="3" stroke-miterlimit="10"/>
<path d="M433.913 476.087L426.734 469.046H345.263L338.54 475.747" stroke="#848899" stroke-width="3" stroke-miterlimit="10"/>
<path d="M294.671 538.208H300.026C307.547 538.208 313.7 532.076 313.7 524.58V490.283C313.7 482.788 307.547 476.655 300.026 476.655H294.671C287.15 476.655 280.997 482.788 280.997 490.283V524.58C280.997 532.076 287.15 538.208 294.671 538.208Z" fill="#848899"/>
<path d="M300.938 584.543L311.193 582.953C314.498 582.499 316.663 579.433 316.207 576.139L311.307 543.318C310.851 540.025 307.775 537.867 304.47 538.321L294.215 539.911C290.911 540.366 288.746 543.432 289.202 546.725L294.101 579.546C294.671 582.726 297.748 584.997 300.938 584.543Z" fill="#848899"/>
<path d="M513.105 378.193L516.865 406.017C516.865 406.017 510.142 403.632 510.142 403.518C505.812 398.294 506.496 396.25 506.61 395.91C506.952 394.887 512.649 379.329 513.105 378.193Z" fill="#848899"/>
<path d="M509.687 391.821C512.308 391.367 514.131 388.982 513.675 386.37L511.169 370.811C510.713 368.199 508.32 366.382 505.699 366.836C503.078 367.291 501.255 369.676 501.711 372.288L504.218 387.846C504.56 390.458 507.067 392.275 509.687 391.821Z" fill="#848899"/>
<path d="M320.65 563.647C322.929 562.171 323.499 559.218 322.131 557.06L313.585 543.773C312.104 541.501 309.141 540.934 306.976 542.296C304.697 543.773 304.128 546.725 305.495 548.883L314.041 562.17C315.522 564.442 318.485 565.123 320.65 563.647Z" fill="#848899"/>
<path d="M304.47 433.841H315.181C322.701 433.841 328.855 427.708 328.855 420.213V396.25C328.855 388.755 322.701 382.622 315.181 382.622H304.47C296.949 382.622 290.796 388.755 290.796 396.25V420.213C290.796 427.708 296.949 433.841 304.47 433.841Z" fill="#848899"/>
<path d="M343.053 509.768L426.462 509.768L426.462 476.038L343.053 476.038L343.053 509.768Z" fill="#ADB3D9"/>
<path d="M352.327 549.338H420.011C427.532 549.338 433.685 543.205 433.685 535.71V514.927C433.685 507.432 427.532 501.299 420.011 501.299H352.327C344.806 501.299 338.653 507.432 338.653 514.927V535.71C338.653 543.205 344.806 549.338 352.327 549.338Z" fill="#848899"/>
<path d="M345.377 601.124H364.406C371.926 601.124 378.079 594.991 378.079 587.496V540.479C378.079 532.984 371.926 526.851 364.406 526.851H345.377C337.856 526.851 331.703 532.984 331.703 540.479V587.496C331.703 594.991 337.856 601.124 345.377 601.124Z" fill="#ADB3D9"/>
<path d="M407.021 601.124H426.05C433.571 601.124 439.724 594.991 439.724 587.496V540.479C439.724 532.984 433.571 526.851 426.05 526.851H407.021C399.501 526.851 393.348 532.984 393.348 540.479V587.496C393.348 594.991 399.501 601.124 407.021 601.124Z" fill="#ADB3D9"/>
<path d="M510.371 179.566L536.465 176.272C548.087 174.796 559.026 184.108 560.622 196.828L561.077 200.689L576.574 199.553L574.865 185.471C574.637 183.768 575.89 182.178 577.6 181.951L587.399 180.701C589.108 180.474 590.704 181.724 590.931 183.427L618.506 406.131C618.734 407.834 617.481 409.424 615.772 409.651L605.972 410.9C604.263 411.128 602.668 409.878 602.44 408.175L578.055 212.159L562.673 213.295L617.025 645.983C617.025 645.983 601.87 694.021 592.527 717.984C579.081 696.86 548.543 654.5 548.543 654.5L492.14 205.345C490.545 192.626 498.749 181.042 510.371 179.566Z" fill="black"/>
<path d="M510.257 180.247C510.257 180.247 508.776 170.253 508.776 170.14C508.662 169.458 508.206 165.71 510.827 162.417C512.422 160.259 514.929 158.783 517.778 158.329L519.487 158.102C525.184 157.307 530.54 161.281 531.337 167.073C531.337 167.187 532.819 177.294 532.819 177.408" fill="black"/>
<path d="M615.69 634.219L547.269 642.642L548.694 654.139L617.115 645.716L615.69 634.219Z" fill="white"/>
<path d="M404.514 701.744H430.608C438.129 701.744 444.282 695.611 444.282 688.116V623.61C444.282 616.115 438.129 609.982 430.608 609.982H404.514C396.994 609.982 390.841 616.115 390.841 623.61V688.116C390.841 695.611 396.994 701.744 404.514 701.744Z" fill="#ADB3D9"/>
<path d="M339.907 701.744H366.001C373.521 701.744 379.674 695.611 379.674 688.116V623.61C379.674 616.115 373.521 609.982 366.001 609.982H339.907C332.387 609.982 326.233 616.115 326.233 623.61V688.116C326.233 695.611 332.387 701.744 339.907 701.744Z" fill="#ADB3D9"/>
<path d="M399.046 723.776H442.346C448.385 723.776 453.398 718.779 453.398 712.76C453.398 706.741 448.385 701.744 442.346 701.744H399.046C393.007 701.744 387.993 706.741 387.993 712.76C387.993 718.779 392.893 723.776 399.046 723.776Z" fill="#848899"/>
<path d="M328.741 723.776H372.04C378.08 723.776 383.093 718.779 383.093 712.76C383.093 706.741 378.08 701.744 372.04 701.744H328.741C322.702 701.744 317.688 706.741 317.688 712.76C317.688 718.779 322.702 723.776 328.741 723.776Z" fill="#848899"/>
<path d="M399.729 609.982H434.027C436.42 609.982 438.357 608.052 438.357 605.667C438.357 603.282 436.42 601.351 434.027 601.351H399.729C397.337 601.351 395.399 603.282 395.399 605.667C395.399 608.052 397.337 609.982 399.729 609.982Z" fill="#848899"/>
<path d="M336.489 609.982H370.787C373.18 609.982 375.117 608.052 375.117 605.667C375.117 603.282 373.18 601.351 370.787 601.351H336.489C334.096 601.351 332.159 603.282 332.159 605.667C332.159 608.052 334.096 609.982 336.489 609.982Z" fill="#848899"/>
<path d="M440.636 345.713C442.573 335.038 443.94 313.46 443.94 288.362C443.94 263.945 442.687 242.708 440.864 231.806C444.168 234.304 467.869 253.156 469.122 286.091C470.376 322.205 443.37 343.669 440.636 345.713Z" fill="#848899"/>
<path d="M298.203 476.996C305.61 477.904 312.447 472.68 313.472 465.299L316.776 439.746C317.688 432.364 312.447 425.55 305.04 424.528C297.634 423.62 290.797 428.844 289.771 436.226L286.467 461.778C285.555 469.273 290.797 476.087 298.203 476.996Z" fill="#ADB3D9"/>
<path d="M240.353 668H184.824H3.64723C1.64126 668 0 660.559 0 651.387V201.613C0 192.441 1.64126 185 3.64723 185H240.353C242.359 185 244 192.441 244 201.613V651.387C244 660.559 242.359 668 240.353 668Z" fill="#CFD3E9"/>
<path d="M244.352 329.931H280.148L244.352 347.051V329.931Z" fill="#CFD3E9"/>
<path d="M195.455 397.266H58.6462C50.2779 397.266 43.4312 392.188 43.4312 385.982V239.284C43.4312 233.078 50.2779 228 58.6462 228H195.455C203.823 228 210.67 233.078 210.67 239.284V385.982C210.67 392.188 203.823 397.266 195.455 397.266Z" fill="#F2F3F9"/>
<path d="M51.6068 242.652H37" stroke="black" stroke-width="2" stroke-miterlimit="10" stroke-linecap="round" stroke-linejoin="round"/>
<path d="M51.6068 254.246H37" stroke="black" stroke-width="2" stroke-miterlimit="10" stroke-linecap="round" stroke-linejoin="round"/>
<path d="M51.6068 265.753H37" stroke="black" stroke-width="2" stroke-miterlimit="10" stroke-linecap="round" stroke-linejoin="round"/>
<path d="M51.6068 277.347H37" stroke="black" stroke-width="2" stroke-miterlimit="10" stroke-linecap="round" stroke-linejoin="round"/>
<path d="M51.6068 288.941H37" stroke="black" stroke-width="2" stroke-miterlimit="10" stroke-linecap="round" stroke-linejoin="round"/>
<path d="M51.6068 300.448H37" stroke="black" stroke-width="2" stroke-miterlimit="10" stroke-linecap="round" stroke-linejoin="round"/>
<path d="M51.6068 312.042H37" stroke="black" stroke-width="2" stroke-miterlimit="10" stroke-linecap="round" stroke-linejoin="round"/>
<path d="M51.6068 323.636H37" stroke="black" stroke-width="2" stroke-miterlimit="10" stroke-linecap="round" stroke-linejoin="round"/>
<path d="M51.6068 335.143H37" stroke="black" stroke-width="2" stroke-miterlimit="10" stroke-linecap="round" stroke-linejoin="round"/>
<path d="M51.6068 346.737H37" stroke="black" stroke-width="2" stroke-miterlimit="10" stroke-linecap="round" stroke-linejoin="round"/>
<path d="M51.6068 358.331H37" stroke="black" stroke-width="2" stroke-miterlimit="10" stroke-linecap="round" stroke-linejoin="round"/>
<path d="M51.6068 369.838H37" stroke="black" stroke-width="2" stroke-miterlimit="10" stroke-linecap="round" stroke-linejoin="round"/>
<path d="M64.9014 271.583L162.863 271.583" stroke="black" stroke-width="2" stroke-miterlimit="10" stroke-linecap="round" stroke-linejoin="round" stroke-dasharray="30 8 12 4"/>
<path d="M64.9014 283.788L141.871 283.788" stroke="black" stroke-width="2" stroke-miterlimit="10" stroke-linecap="round" stroke-linejoin="round" stroke-dasharray="30 8 12 4"/>
<path d="M64.9014 318.657H141.871" stroke="black" stroke-width="2" stroke-miterlimit="10" stroke-linecap="round" stroke-linejoin="round" stroke-dasharray="30 8 12 4"/>
<path d="M64.9014 306.453L162.863 306.453" stroke="black" stroke-width="2" stroke-miterlimit="10" stroke-linecap="round" stroke-linejoin="round" stroke-dasharray="30 8 12 4"/>
<path d="M64.9014 353.526H113.007" stroke="black" stroke-width="2" stroke-miterlimit="10" stroke-linecap="round" stroke-linejoin="round" stroke-dasharray="30 8 12 4"/>
<path d="M64.9014 341.322L135.748 341.322" stroke="black" stroke-width="2" stroke-miterlimit="10" stroke-linecap="round" stroke-linejoin="round" stroke-dasharray="30 8 12 4"/>
<path d="M128.708 338.369C128.708 335.332 131.17 332.869 134.208 332.869H208.495C211.532 332.869 213.995 335.332 213.995 338.369V379.321V403.464C213.995 406.502 211.532 408.964 208.495 408.964H178.791H134.208C131.17 408.964 128.708 406.502 128.708 403.464V338.369Z" fill="#F2F3F9" stroke="#A3684A" stroke-width="3"/>
<path d="M127.208 338.369C127.208 334.503 130.342 331.369 134.208 331.369H208.495C212.361 331.369 215.495 334.503 215.495 338.369V351.143H127.208V338.369Z" fill="#A3684A"/>
<rect x="142.087" y="321.483" width="8.92793" height="21.751" rx="4" fill="black"/>
<rect x="166.887" y="321.483" width="8.92793" height="21.751" rx="4" fill="black"/>
<rect x="190.696" y="321.483" width="8.92793" height="21.751" rx="4" fill="black"/>
<rect x="136.136" y="356.086" width="12.8959" height="12.8529" fill="#ADB3D9"/>
<rect x="154.983" y="356.086" width="12.8959" height="12.8529" fill="#ADB3D9"/>
<rect x="192.679" y="356.086" width="12.8959" height="12.8529" fill="#ADB3D9"/>
<rect x="173.832" y="356.086" width="12.8959" height="12.8529" fill="#ADB3D9"/>
<rect x="136.136" y="373.883" width="12.8959" height="12.8529" fill="#ADB3D9"/>
<rect x="154.983" y="373.883" width="12.8959" height="12.8529" fill="#ADB3D9"/>
<path d="M173.832 373.883H186.727V375.86V386.736H176.312H173.832V373.883Z" fill="#ADB3D9"/>
<rect x="154.983" y="391.679" width="12.8959" height="12.8529" fill="#ADB3D9"/>
<rect x="136.136" y="391.679" width="12.8959" height="12.8529" fill="#ADB3D9"/>
<path d="M156.967 402.554L165.895 393.656" stroke="black" stroke-width="3" stroke-linecap="round" stroke-linejoin="round"/>
<path d="M165.896 402.554L156.968 393.656" stroke="black" stroke-width="3" stroke-linecap="round" stroke-linejoin="round"/>
<path d="M222.922 396.622C222.922 409.986 212.051 420.828 198.63 420.828C185.209 420.828 174.338 409.986 174.338 396.622C174.338 383.259 185.209 372.417 198.63 372.417C212.051 372.417 222.922 383.259 222.922 396.622Z" fill="#F2F3F9" stroke="black" stroke-width="3"/>
<rect x="194.663" y="378.826" width="7.93594" height="25.7058" rx="3.96797" fill="black"/>
<ellipse cx="198.631" cy="410.464" rx="3.96797" ry="3.95473" fill="black"/>
<path d="M195.747 616.625H58.5089C50.1144 616.625 43.2461 611.807 43.2461 605.917V466.708C43.2461 460.819 50.1144 456 58.5089 456H195.747C204.142 456 211.01 460.819 211.01 466.708V605.917C211.01 611.807 204.142 616.625 195.747 616.625Z" fill="#FAFAFA"/>
<path d="M51.9025 471.081H37" stroke="black" stroke-width="2" stroke-miterlimit="10" stroke-linecap="round" stroke-linejoin="round"/>
<path d="M51.9025 482.949H37" stroke="black" stroke-width="2" stroke-miterlimit="10" stroke-linecap="round" stroke-linejoin="round"/>
<path d="M51.9025 494.729H37" stroke="black" stroke-width="2" stroke-miterlimit="10" stroke-linecap="round" stroke-linejoin="round"/>
<path d="M51.9025 506.597H37" stroke="black" stroke-width="2" stroke-miterlimit="10" stroke-linecap="round" stroke-linejoin="round"/>
<path d="M51.9025 518.465H37" stroke="black" stroke-width="2" stroke-miterlimit="10" stroke-linecap="round" stroke-linejoin="round"/>
<path d="M51.9025 530.245H37" stroke="black" stroke-width="2" stroke-miterlimit="10" stroke-linecap="round" stroke-linejoin="round"/>
<path d="M51.9025 542.113H37" stroke="black" stroke-width="2" stroke-miterlimit="10" stroke-linecap="round" stroke-linejoin="round"/>
<path d="M51.9025 553.982H37" stroke="black" stroke-width="2" stroke-miterlimit="10" stroke-linecap="round" stroke-linejoin="round"/>
<path d="M51.9025 565.76H37" stroke="black" stroke-width="2" stroke-miterlimit="10" stroke-linecap="round" stroke-linejoin="round"/>
<path d="M51.9025 577.629H37" stroke="black" stroke-width="2" stroke-miterlimit="10" stroke-linecap="round" stroke-linejoin="round"/>
<path d="M51.9025 589.498H37" stroke="black" stroke-width="2" stroke-miterlimit="10" stroke-linecap="round" stroke-linejoin="round"/>
<path d="M51.9025 601.277H37" stroke="black" stroke-width="2" stroke-miterlimit="10" stroke-linecap="round" stroke-linejoin="round"/>
<path d="M89.5593 484.913H67.0718V507.4H89.5593V484.913Z" stroke="black" stroke-width="2" stroke-miterlimit="10" stroke-linecap="round" stroke-linejoin="round"/>
<path d="M73.7651 493.836L78.227 498.298L94.3787 482.146" stroke="black" stroke-width="2" stroke-miterlimit="10" stroke-linecap="round" stroke-linejoin="round"/>
<path d="M102.141 491.695H194.054" stroke="black" stroke-width="2" stroke-miterlimit="10" stroke-linecap="round" stroke-linejoin="round"/>
<path d="M102.141 504.188H176.207" stroke="black" stroke-width="2" stroke-miterlimit="10" stroke-linecap="round" stroke-linejoin="round"/>
<path d="M89.5593 520.429H67.0718V542.916H89.5593V520.429Z" stroke="black" stroke-width="2" stroke-miterlimit="10" stroke-linecap="round" stroke-linejoin="round"/>
<path d="M73.7651 529.352L78.227 533.814L94.3787 517.662" stroke="black" stroke-width="2" stroke-miterlimit="10" stroke-linecap="round" stroke-linejoin="round"/>
<path d="M89.5593 558.622H67.0718V581.11H89.5593V558.622Z" stroke="black" stroke-width="2" stroke-miterlimit="10" stroke-linecap="round" stroke-linejoin="round"/>
<path d="M73.7651 567.635L78.227 572.097L94.3787 555.945" stroke="black" stroke-width="2" stroke-miterlimit="10" stroke-linecap="round" stroke-linejoin="round"/>
<path d="M102.141 526.497H194.054" stroke="black" stroke-width="2" stroke-miterlimit="10" stroke-linecap="round" stroke-linejoin="round"/>
<path d="M102.141 538.99H176.207" stroke="black" stroke-width="2" stroke-miterlimit="10" stroke-linecap="round" stroke-linejoin="round"/>
<path d="M102.141 563.976H194.054" stroke="black" stroke-width="2" stroke-miterlimit="10" stroke-linecap="round" stroke-linejoin="round"/>
<path d="M102.141 576.469H176.207" stroke="black" stroke-width="2" stroke-miterlimit="10" stroke-linecap="round" stroke-linejoin="round"/>
<path d="M230.015 77.6872C231.165 73.419 231.808 68.9803 233.54 64.8957C241.783 45.4952 257.658 33.5626 281.082 29.3533C283.177 28.9796 284.462 28.3633 285.4 26.4751C293.856 9.42842 314.707 -1.32409 335.967 0.131434C353.484 1.3247 367.007 8.3029 376.536 21.0661C377.769 22.7052 378.805 23.033 380.938 22.4691C416.485 13.2901 453.627 33.1823 460.033 64.8498C460.681 68.6412 460.977 72.4714 460.918 76.3038C460.918 77.8774 461.501 78.5789 463.051 79.2149C475.908 84.46 483.517 93.3308 486.308 105.316C489.9 120.789 479.168 137.724 462.038 143.861C456.268 146.034 449.981 146.974 443.704 146.602C441.965 146.477 441.383 147.211 440.679 148.287C434.042 158.845 424.358 167.73 412.575 174.073C395.225 183.436 376.4 186.865 356.169 184.039C340.209 181.881 325.377 175.583 313.626 165.976C313.092 165.447 312.372 165.086 311.577 164.95C310.782 164.813 309.957 164.909 309.232 165.222C285.105 172.932 258.49 159.078 255.102 136.99C254.72 133.903 254.69 130.791 255.011 127.7C255.139 127.04 255.05 126.364 254.756 125.746C254.462 125.128 253.974 124.594 253.347 124.205C242.877 117.071 235.417 107.14 232.125 95.9534C231.127 92.6752 230.696 89.2921 230 85.9549L230.015 77.6872Z" fill="#CFD3E9"/>
<path d="M358.118 155.389C358.169 155.389 358.219 155.385 358.269 155.377L367.378 153.982C367.494 153.965 367.606 153.927 367.709 153.87C367.864 153.785 368.024 153.708 368.188 153.64C370.664 152.797 372.772 151.124 374.154 148.903C376.49 145.258 375.969 141.41 375.201 137.803C375.091 137.285 374.596 136.943 374.073 137.022L346.889 141.15C346.343 141.233 345.968 141.743 346.051 142.289C346.116 142.718 346.174 143.165 346.234 143.621C346.371 144.677 346.515 145.78 346.766 146.821C347.556 150.108 349.557 152.655 352.641 154.051L352.642 154.052C354.264 154.784 356.115 155.389 358.118 155.389Z" fill="black" stroke="black" stroke-width="2" stroke-linejoin="round"/>
<path d="M295 92.5722C295.918 90.5777 297.496 89.9484 299.638 90.0033C303.892 90.1101 308.152 90.0033 312.408 90.0494C314.971 90.0725 316.628 92.4423 315.721 94.7256C315.176 96.0995 314.111 96.9106 312.636 96.9251C307.883 96.9684 303.113 96.9539 298.371 96.9251C296.657 96.9251 295.727 95.7705 295 94.4052V92.5722Z" fill="black"/>
<path d="M410.039 81.5134C408.718 79.7596 407.042 79.4805 404.961 79.9894C400.827 80.9984 396.642 81.7999 392.493 82.7503C389.993 83.3179 388.879 85.9858 390.25 88.0241C391.075 89.2506 392.288 89.8167 393.732 89.5172C398.386 88.5487 403.044 87.5201 407.671 86.4835C409.346 86.119 410.009 84.7931 410.429 83.3044L410.039 81.5134Z" fill="black"/>
<path d="M358.673 131.832L345.799 133.787C342.922 134.223 341.507 133.203 341.041 130.369C340.247 125.544 338.014 121.638 334.074 118.61C316.628 105.201 318.015 78.5159 336.966 67.3701C347.838 60.9722 359.165 61.0798 369.89 67.9444C384.033 76.9994 388.215 95.2338 379.818 109.799C379.263 110.759 378.627 111.682 377.996 112.598C375.401 116.352 374.624 120.52 375.207 124.992C375.611 128.115 374.656 129.417 371.571 129.885L358.673 131.832Z" fill="black"/>
<path d="M342.298 46.5205C341.969 44.3545 341.641 42.1913 341.312 40.0253C340.962 37.7223 342.139 35.9554 344.173 35.6641C346.207 35.3727 347.787 36.7007 348.126 38.9324C348.809 43.3344 349.478 47.7387 350.132 52.1454C350.467 54.3542 349.254 56.1092 347.257 56.3949C345.26 56.6806 343.648 55.3546 343.296 53.1279C342.943 50.9013 342.633 48.7237 342.298 46.5205Z" fill="black"/>
<path d="M322.968 68.3978C323.148 70.1806 322.756 71.3495 321.63 72.1599C320.504 72.9703 319.189 73.1145 317.952 72.3914C316.965 71.8085 316.06 71.0816 315.131 70.3994C312.253 68.2867 309.378 66.1685 306.506 64.0451C305.331 63.1695 304.796 61.9691 305.094 60.5108C305.37 59.1608 306.209 58.1108 307.566 57.934C308.511 57.811 309.731 57.9469 310.481 58.4665C314.265 61.1035 317.955 63.8569 321.622 66.646C322.279 67.1477 322.671 67.9991 322.968 68.3978Z" fill="black"/>
<path d="M389.327 49.3998C389.115 49.9283 388.973 50.9134 388.437 51.6517C385.834 55.311 383.156 58.9203 380.453 62.516C379.181 64.2098 377.161 64.5194 375.58 63.3727C373.999 62.226 373.654 60.1821 374.884 58.4772C377.555 54.7724 380.264 51.0922 383.009 47.4365C383.416 46.8432 384.004 46.3984 384.686 46.1695C385.367 45.9406 386.105 45.9401 386.787 46.1681C388.179 46.5931 388.929 47.5859 389.327 49.3998Z" fill="black"/>
</svg>
